<?xml version="1.0" encoding="utf-8"?>
<!-- Generator: Adobe Illustrator 16.0.0, SVG Export Plug-In . SVG Version: 6.00 Build 0)  -->
<!DOCTYPE svg PUBLIC "-//W3C//DTD SVG 1.1//EN" "http://www.w3.org/Graphics/SVG/1.1/DTD/svg11.dtd">
<svg version="1.1" id="Layer_1" xmlns="http://www.w3.org/2000/svg" xmlns:xlink="http://www.w3.org/1999/xlink" x="0px" y="0px"
	 width="200px" height="200px" viewBox="0 0 200 200" enable-background="new 0 0 200 200" xml:space="preserve">
<linearGradient id="SVGID_1_" gradientUnits="userSpaceOnUse" x1="518.0068" y1="560.2109" x2="705.994" y2="491.7892" gradientTransform="matrix(1 0 0 1 -512 -426)">
	<stop  offset="0" style="stop-color:#5437DC"/>
	<stop  offset="1" style="stop-color:#EE79FF"/>
</linearGradient>
<path fill="url(#SVGID_1_)" d="M100,0C44.776,0,0,44.776,0,100c0,55.221,44.776,100,100,100c55.221,0,100-44.779,100-100
	C200,44.776,155.221,0,100,0z M69.763,151.62c-7.263,0-14.527,0-21.774,0c16.925-35.751,33.87-71.511,50.795-107.262
	c0.003,0.001,0.004,0.004,0.008,0.004l12.082,24.21C97.174,96.243,83.457,123.927,69.763,151.62z M128.616,151.62
	c-2.682-6.202-5.362-12.376-8.043-18.547c-6.733,0-13.443,0-20.169,0H100l0.405-0.811c6.984-14.524,13.968-29.039,20.979-43.547
	c10.194,20.951,20.42,41.928,30.644,62.906C144.232,151.62,136.427,151.62,128.616,151.62z"/>
</svg>
